<?xml version="1.0" encoding="UTF-8" standalone="no"?>
<!-- Created with Inkscape (http://www.inkscape.org/) -->

<svg
   xmlns:dc="http://purl.org/dc/elements/1.1/"
   xmlns:cc="http://creativecommons.org/ns#"
   xmlns:rdf="http://www.w3.org/1999/02/22-rdf-syntax-ns#"
   xmlns:svg="http://www.w3.org/2000/svg"
   xmlns="http://www.w3.org/2000/svg"
   xmlns:sodipodi="http://sodipodi.sourceforge.net/DTD/sodipodi-0.dtd"
   xmlns:inkscape="http://www.inkscape.org/namespaces/inkscape"
   width="408.48056"
   height="319.48987"
   id="svg4096"
   version="1.1"
   inkscape:version="0.48.4 r9939"
   sodipodi:docname="New document 6">
  <defs
     id="defs4098" />
  <sodipodi:namedview
     id="base"
     pagecolor="#ffffff"
     bordercolor="#66e766"
     borderopacity="1"
     inkscape:pageopacity="0.0"
     inkscape:pageshadow="2"
     inkscape:zoom="0.35"
     inkscape:cx="578.75955"
     inkscape:cy="20.706688"
     inkscape:document-units="px"
     inkscape:current-layer="layer1"
     showgrid="false"
     inkscape:showpageshadow="false"
     borderlayer="true"
     fit-margin-top="0"
     fit-margin-left="0"
     fit-margin-right="0"
     fit-margin-bottom="0"
     inkscape:window-width="882"
     inkscape:window-height="664"
     inkscape:window-x="43"
     inkscape:window-y="34"
     inkscape:window-maximized="0" />
  <metadata
     id="metadata4101">
    <rdf:RDF>
      <cc:Work
         rdf:about="">
        <dc:format>image/svg+xml</dc:format>
        <dc:type
           rdf:resource="http://purl.org/dc/dcmitype/StillImage" />
        <dc:title></dc:title>
      </cc:Work>
    </rdf:RDF>
  </metadata>
  <g
     inkscape:label="Layer 1"
     inkscape:groupmode="layer"
     id="layer1"
     transform="translate(-158.61687,-421.18868)">
    <path
       inkscape:connector-curvature="0"
       id="path3991"
       style="fill:none;stroke:#000000;stroke-width:48.54000092;stroke-linecap:round;stroke-linejoin:miter;stroke-miterlimit:4;stroke-opacity:1;stroke-dasharray:none"
       d="m 198.62098,707.75383 117.66394,0 m 0,-134.94439 c 23.52526,52.82322 16.18256,95.35711 0,134.94439 m -117.66394,-134.94439 117.66394,0 M 198.62098,455.06496 c -25.17043,43.8246 -16.32614,81.46471 0,117.74448 m 117.66394,-117.74448 -117.66394,0" />
    <path
       inkscape:connector-curvature="0"
       id="path4062"
       style="fill:none;stroke:#000000;stroke-width:30;stroke-linecap:round;stroke-linejoin:miter;stroke-miterlimit:4;stroke-opacity:1;stroke-dasharray:none"
       d="m 398.79182,560.03776 135.4279,0 m 0,0 c 18.91791,-31.82407 28.29882,-68.41664 0,-123.84908 m -67.7139,57.07362 0,66.77546 m -67.714,0 c -18.91791,-31.82407 -28.29882,-68.41664 0,-123.84908" />
    <path
       d="m 398.79182,601.82946 135.4279,0 m 0,0 c 18.91791,31.82407 28.29882,68.41664 0,123.84908 m -67.7139,-57.07362 0,-66.77546 m -67.714,0 c -18.91791,31.82407 -28.29882,68.41664 0,123.84908"
       style="fill:none;stroke:#000000;stroke-width:30;stroke-linecap:round;stroke-linejoin:miter;stroke-miterlimit:4;stroke-opacity:1;stroke-dasharray:none"
       id="path4071"
       inkscape:connector-curvature="0" />
  </g>
</svg>
