<?xml version="1.0" encoding="UTF-8" standalone="no"?>
<!-- Created with Inkscape (http://www.inkscape.org/) -->

<svg
   xmlns:dc="http://purl.org/dc/elements/1.1/"
   xmlns:cc="http://creativecommons.org/ns#"
   xmlns:rdf="http://www.w3.org/1999/02/22-rdf-syntax-ns#"
   xmlns:svg="http://www.w3.org/2000/svg"
   xmlns="http://www.w3.org/2000/svg"
   xmlns:sodipodi="http://sodipodi.sourceforge.net/DTD/sodipodi-0.dtd"
   xmlns:inkscape="http://www.inkscape.org/namespaces/inkscape"
   width="420.07379"
   height="322.22"
   id="svg3976"
   version="1.1"
   inkscape:version="0.48.4 r9939"
   sodipodi:docname="simple.svg">
  <defs
     id="defs3978" />
  <sodipodi:namedview
     id="base"
     pagecolor="#ffffff"
     bordercolor="#66e766"
     borderopacity="1"
     inkscape:pageopacity="0.0"
     inkscape:pageshadow="2"
     inkscape:zoom="0.7"
     inkscape:cx="278.69563"
     inkscape:cy="165.77374"
     inkscape:document-units="px"
     inkscape:current-layer="layer1"
     showgrid="false"
     inkscape:window-width="998"
     inkscape:window-height="738"
     inkscape:window-x="9"
     inkscape:window-y="8"
     inkscape:window-maximized="0"
     fit-margin-top="1"
     fit-margin-left="1"
     fit-margin-right="1"
     fit-margin-bottom="1"
     inkscape:showpageshadow="false"
     borderlayer="true" />
  <metadata
     id="metadata3981">
    <rdf:RDF>
      <cc:Work
         rdf:about="">
        <dc:format>image/svg+xml</dc:format>
        <dc:type
           rdf:resource="http://purl.org/dc/dcmitype/StillImage" />
        <dc:title></dc:title>
      </cc:Work>
    </rdf:RDF>
  </metadata>
  <g
     inkscape:label="Layer 1"
     inkscape:groupmode="layer"
     id="layer1"
     transform="translate(-115.66892,-442.68625)">
    <path
       inkscape:connector-curvature="0"
       id="path3169"
       style="fill:none;stroke:#000000;stroke-width:1px;stroke-linecap:butt;stroke-linejoin:miter;stroke-opacity:1"
       d="m 350.19383,603.79077 c -32.0961,45.365 -31.8557,114.65562 0,159.60412 m 0,0 41.6154,0 m 118.4495,-159.60412 c 32.096,45.365 31.8556,114.65562 0,159.60412 m 0,0 -41.6154,0 m -59.2247,-57.0736 41.6154,0 m -59.2248,57.0736 c -28.1588,-38.6666 -30.4483,-80.0334 -16.9784,-117.81242 m 34.5878,60.73882 0,-60.91512 m 41.6154,60.91512 0,-60.91512 m 17.6093,117.98872 c 28.1589,-38.6666 30.4484,-80.0334 16.9784,-117.81242 m -110.7909,0 34.5878,-0.1763 m 41.6154,0 34.5877,0.1763" />
    <path
       inkscape:connector-curvature="0"
       id="path3147"
       style="fill:none;stroke:#000000;stroke-width:1px;stroke-linecap:butt;stroke-linejoin:miter;stroke-opacity:1"
       d="m 350.19383,603.79077 c -32.0961,-45.365 -31.8557,-114.65559 0,-159.60415 m 0,0 41.6154,0 m 118.4495,159.60415 c 32.096,-45.365 31.8556,-114.65559 0,-159.60415 m 0,0 -41.6154,0 m -59.2247,57.07362 41.6154,0 m -59.2248,-57.07362 c -28.1588,38.66662 -30.4483,80.03346 -16.9784,117.81245 m 34.5878,-60.73883 0,60.91513 m 41.6154,-60.91513 0,60.91513 m 17.6093,-117.98875 c 28.1589,38.66662 30.4484,80.03346 16.9784,117.81245 m -110.7909,0 34.5878,0.1763 m 41.6154,0 34.5877,-0.1763" />
    <path
       inkscape:connector-curvature="0"
       style="fill:none;stroke:#000000;stroke-width:1px;stroke-linecap:butt;stroke-linejoin:miter;stroke-opacity:1"
       d="m 350.19383,603.79077 160.0649,0"
       id="path3135" />
    <path
       inkscape:connector-curvature="0"
       id="path3143"
       style="fill:none;stroke:#000000;stroke-width:1px;stroke-linecap:butt;stroke-linejoin:miter;stroke-opacity:1"
       d="m 141.16503,444.18662 153.241,0 m 5.7332,319.20827 -159.9743,0 m 0,0 c -9.7769,-17.5071 -18.2095,-37.806 -22.1327,-67.471 m 140.7541,0.136 -140.7541,-0.136 m 140.7541,-66.45387 -117.6213,-0.13595 m 159.9742,-67.335 -117.6213,6e-5 m 0,-50.3415 133.0208,0 m -22.1327,-67.47101 c 9.7769,17.50712 18.2096,37.80593 22.1327,67.47101 m -133.0208,0 c -5.8915,18.82723 -5.8924,31.45458 0,50.3415 m -42.3529,-117.81251 c -31.9391,55.32012 -31.9999,129.72201 0,185.14745 m 117.6213,0.13595 c 7.1643,18.56466 7.3317,48.38667 0,66.58987 m 42.3529,-134.06082 c 32.1091,55.61464 32.0846,145.82372 0,201.39582" />
  </g>
</svg>
